<svg width="481" height="112" viewBox="0 0 481 112" fill="none" xmlns="http://www.w3.org/2000/svg">
<rect y="83" width="471" height="24" fill="#EFEB48"/>
<path d="M37.9 64.45H24.55V62.95H37.9V64.45ZM37.9 68.5H24.55V66.95H37.9V68.5ZM37.9 72.6H24.55V71H37.9V72.6ZM19.05 60.35V75.25H43.65V60.35H32.8L33.45 58.75H47.7V54.75H40.35C41.05 53.8 41.8 52.65 42.55 51.4L37 50.55C36.5 51.75 35.65 53.4 34.85 54.75H28C27.5 53.45 26.55 51.8 25.7 50.6L20.85 51.5C21.45 52.45 22.1 53.65 22.55 54.75H15.1V58.75H28C27.9 59.3 27.75 59.85 27.65 60.35H19.05ZM14.45 57.35C13.05 55.45 10 52.9 7.5 51.2L3.65 54.45C6.15 56.3 9.1 59.05 10.4 60.9L14.45 57.35ZM37.05 81.1C40.8 81.05 44.4 80.95 47.05 80.85C47.3 79.55 48 77.4 48.5 76.3C41.6 76.8 28.55 76.95 22.5 76.7C18.25 76.55 15.25 75.45 13.6 72.7V63H2.45V67.5H8.2V73.55C6.1 74.75 3.9 75.85 2.05 76.75L4.05 81.45C6.85 79.75 9.3 78.2 11.7 76.55C14.1 79.7 17.5 80.8 22.55 81C24.85 81.05 27.95 81.1 31.3 81.1V83.2H2.3V87.7H13.35L10.7 89.9C13.05 91.55 16.05 94.1 17.35 95.75L21.65 92.1C20.5 90.8 18.45 89.1 16.45 87.7H31.3V91.55C31.3 92.1 31.05 92.3 30.25 92.3C29.5 92.35 26.75 92.35 24.3 92.2C25.05 93.7 25.9 95.75 26.15 97.35C29.85 97.35 32.5 97.3 34.5 96.55C36.5 95.75 37.05 94.35 37.05 91.7V87.7H47.75V83.2H37.05V81.1ZM66.55 53.45V59.5H77.95C78.1 61.2 78.3 63 78.65 64.9L75.6 64.35C72.85 77.5 66.9 87.15 56.5 92.4C58.05 93.55 60.85 96 61.95 97.25C70.65 92.05 76.65 83.75 80.4 72.55C83.15 81.5 88.45 90.95 98.8 97.2C99.85 95.65 102.3 93.05 103.6 92C85.2 81.15 83.85 62.9 83.85 53.45H66.55ZM148.15 90.3H130.4V83.5H148.15V90.3ZM141.6 62.85H135.55V78.25H124.6V97.35H130.4V95.5H148.15V97.3H154.25V78.25H141.6V72.8H157.2V67.55H141.6V62.85ZM139.65 56.45V50.7H133.45V56.45H115.65V69.05C115.65 76.25 115.3 86.75 111.2 93.9C112.6 94.55 115.25 96.25 116.35 97.25C120.85 89.45 121.6 77.1 121.6 69.05V62.1H157.85V56.45H139.65ZM181.15 85.35V89.85H174.25V85.35H181.15ZM169.1 97.25H174.25V94.7H181.15V96.25H186.5V80.55H169.1V97.25ZM207 70.6V73.8H202.85V70.6H207ZM202.85 81.85V78.6H207V81.85H202.85ZM193.7 81.85V78.6H197.55V81.85H193.7ZM197.55 70.6V73.8H193.7V70.6H197.55ZM212.85 62.3V57.2H209.9L212.5 55.05C211.35 53.7 208.9 51.85 207 50.7L203.5 53.3C205.1 54.4 206.95 55.9 208.2 57.2H202.85V50.65H197.55V57.2H187.65V59.2C185.8 56.55 182.35 53.1 179.45 50.7H174.4C172.75 54.4 169.9 58.95 165.8 62.4C166.95 63.15 168.55 64.95 169.45 66.15V70.1H175.05V73.5H167.8V78.3H187.3V73.5H180.45V70.1H186.2V65.55H180.45V61.3H175.05V65.55H170.45C173.7 62.4 176.05 59 177.85 56.05C180.35 58.5 182.95 61.95 184.3 64.2L187.65 60V62.3H197.55V65.6H188.55V97.15H193.7V86.6H197.55V96.9H202.85V86.6H207V91.55C207 92 206.85 92.15 206.4 92.15C206 92.2 204.75 92.2 203.55 92.15C204.25 93.5 204.9 95.75 205.05 97.2C207.45 97.2 209.15 97.05 210.5 96.2C211.9 95.3 212.2 93.95 212.2 91.65V65.6H202.85V62.3H212.85ZM239.6 77.35C238.75 76 235.15 70.5 233.8 68.65V66.45H238.8V60.95H233.8V50.65H228.4V60.95H222.4V66.45H227.95C226.7 72.35 224.05 79.3 221.25 83.2C222.1 84.55 223.3 86.8 223.85 88.45C225.55 85.95 227.1 82.45 228.4 78.6V97.3H233.8V75.75C234.9 77.9 235.95 80.15 236.55 81.6L239.6 77.35ZM248.65 83.55C244.4 85.75 240 88 237.05 89.35L239.6 94.35C242.8 92.6 246.7 90.4 250.2 88.35L248.65 83.55ZM239.9 78.1C241.7 80.05 243.75 82.75 244.65 84.5L248.9 81.5C247.9 79.8 245.8 77.25 243.95 75.45L239.9 78.1ZM263.35 75.3C262.2 76.95 260.25 79.05 258.5 80.7C257.7 79.3 257 77.85 256.45 76.3V74.35H268.1V69.5H256.45V67.3H266.15V62.85H256.45V60.85H267.2V56.2H262.35C263.15 54.95 264.05 53.45 264.95 51.95L259.05 50.6C258.55 52.2 257.55 54.5 256.8 56.2H250.6C250.1 54.7 248.9 52.45 247.75 50.7L243.05 52.3C243.75 53.5 244.5 54.9 245 56.2H239.9V60.85H250.7V62.85H241.25V67.3H250.7V69.5H238.95V74.35H250.7V91.4C250.7 92 250.5 92.25 249.9 92.25C249.3 92.25 247.35 92.25 245.65 92.15C246.4 93.6 247.05 95.9 247.25 97.45C250.35 97.45 252.7 97.3 254.35 96.45C255.95 95.55 256.45 94.15 256.45 91.45V86.25C258.7 90 261.65 93.05 265.3 95.05C266.15 93.55 267.8 91.35 269.05 90.25C266 89 263.4 87.05 261.25 84.6C263.2 83 265.75 80.65 267.85 78.45L263.35 75.3ZM321.35 75.4C321.35 64.5 313.55 55.9 301.15 55.9C288.2 55.9 278.2 65.75 278.2 77.3C278.2 85.75 282.8 91.85 288.35 91.85C293.8 91.85 298.1 85.65 301.1 75.55C302.55 70.85 303.4 66.25 304.1 62C310.85 63.15 314.6 68.3 314.6 75.2C314.6 82.5 309.6 87.1 303.2 88.6C301.85 88.9 300.45 89.2 298.55 89.4L302.3 95.35C314.9 93.4 321.35 85.95 321.35 75.4ZM284.6 76.65C284.6 71.15 289.05 63.85 297.3 62.15C296.75 66.3 295.8 70.55 294.65 74.25C292.6 81 290.65 84.15 288.55 84.15C286.6 84.15 284.6 81.7 284.6 76.65ZM344.4 80.95H366.2V83.85H344.4V80.95ZM356.25 58.5C355.4 59.7 354.45 61 353.45 62.1H343.55C344.75 60.95 345.85 59.75 346.85 58.5H356.25ZM366.2 69.55H344.4V66.7H366.2V69.55ZM366.2 76.65H344.4V73.85H366.2V76.65ZM372.4 88.5V62.1H360.55C362.1 60.2 363.55 58.15 364.6 56.35L360.5 53.7L359.55 53.95H350.25C350.7 53.25 351.15 52.6 351.55 51.9L345.1 50.7C342.65 55.1 338.2 60.15 331.85 63.85C333.2 64.7 335.25 66.7 336.25 68.1C337.05 67.55 337.8 67.05 338.5 66.5V88.5H346C342.55 90.3 337.1 91.95 332.2 92.95C333.55 94.05 335.8 96.35 336.85 97.55C341.85 96.05 348.2 93.5 352.3 90.8L347.2 88.5H362.8L358.4 91.35C363.2 93.25 368.2 95.7 370.95 97.35L377.65 94.35C374.4 92.7 368.9 90.35 364.05 88.5H372.4ZM424.1 66.65H411.55V59.35H424.1V66.65ZM424.1 79.75H411.55V72.2H424.1V79.75ZM430.05 53.85H405.85V85.25H430.05V53.85ZM403.95 71.75L399.05 73V65.65H404.3V60.15H399.05V50.7H393.25V60.15H387.05V65.65H393.25V74.4C390.75 75 388.35 75.55 386.4 75.95L387.95 81.65L393.25 80.25V90.65C393.25 91.35 393 91.6 392.3 91.6C391.65 91.6 389.55 91.6 387.6 91.55C388.3 93.05 389.1 95.4 389.25 96.95C392.75 96.95 395.2 96.8 396.85 95.85C398.5 95 399.05 93.55 399.05 90.65V78.75C400.95 78.25 402.8 77.7 404.65 77.2L403.95 71.75ZM402.4 90.15V95.7H433.1V90.15H402.4ZM468.614 65.64C468.614 56.463 462.458 53.157 455.39 53.157C448.322 53.157 442.166 56.463 442.166 65.697V80.973C442.166 89.808 448.322 93.513 455.39 93.513C462.458 93.513 468.614 89.808 468.614 80.973V65.64ZM460.634 66.381V80.289C460.634 84.507 458.924 86.787 455.39 86.787C451.799 86.787 450.089 84.507 450.089 80.289V66.381C450.089 62.163 451.799 59.883 455.39 59.883C458.924 59.883 460.634 62.163 460.634 66.381Z" fill="#012E4C"/>
<path d="M346 23.6C342.5 23.6 339.6 26.5 339.6 30C339.6 33.5 342.5 36.4 346 36.4C349.5 36.4 352.4 33.5 352.4 30C352.4 26.5 349.5 23.6 346 23.6ZM401 23.6C397.5 23.6 394.6 26.5 394.6 30C394.6 33.5 397.5 36.4 401 36.4C404.5 36.4 407.4 33.5 407.4 30C407.4 26.5 404.5 23.6 401 23.6ZM456 23.6C452.5 23.6 449.6 26.5 449.6 30C449.6 33.5 452.5 36.4 456 36.4C459.5 36.4 462.4 33.5 462.4 30C462.4 26.5 459.5 23.6 456 23.6Z" fill="#012E4C"/>
</svg>
